<?xml version="1.0" encoding="utf-8"?>
<!-- Generator: Adobe Illustrator 19.0.0, SVG Export Plug-In . SVG Version: 6.00 Build 0)  -->
<svg version="1.1" id="Layer_1" xmlns="http://www.w3.org/2000/svg" xmlns:xlink="http://www.w3.org/1999/xlink" x="0px" y="0px"
	 viewBox="0 0 683.3 254" style="enable-background:new 0 0 683.3 254;" xml:space="preserve">
<style type="text/css">
	.st0{fill:none;stroke:#777777;stroke-width:0.5;stroke-miterlimit:10;}
	.st1{fill:rgba(0, 0, 0, 0.45);}
	.st2{font-family:'ArialMT', 'Arial', 'Helvetica', 'sans-serif';}
	.st3{font-size:15px;}
	.st4{font-size:22px;}
	.st5{font-size:24px;}
	.st6{font-size:12px;}
	.st7{font-size:10px;}
	.st8{font-size:8px;}
	.st9{fill:#69c0ff}
	.st10{fill:#91d5ff}

	path.active{ fill: rgb(121, 187, 255); }
	path.deadkey{fill: orange;}
    path.clickable:hover{cursor:pointer; stroke-width: 2;}
    text {user-select: none;}
	text.active{fill:#FFFFFF;}
	path.correct{stroke:#C2EA9A;stroke-width:4;}
	text.correct{}
	path.incorrect{fill:#E97E7E;}
	text.incorrect{fill:white;}
</style>
<g id="keys">
	<path id="tilda" class="st0" d="M58.4,53.7c0,1.7-1.4,3-3,3H18.9c-1.6,0-3-1.3-3-3V18.3c0-1.7,1.3-3,3-3h36.5c1.6,0,3,1.3,3,3V53.7z"/>
	<path id="key-1" class="st0" d="M103.4,53.7c0,1.7-1.3,3-3,3H63.9c-1.7,0-3-1.3-3-3V18.3c0-1.6,1.3-3,3-3h36.5c1.7,0,3,1.4,3,3V53.7z"/>
	<path id="q" class="st0" d="M126.7,97.6c0,1.6-1.3,3-3,3H87.2c-1.7,0-3-1.4-3-3V62.3c0-1.6,1.3-3,3-3h36.5c1.7,0,3,1.4,3,3V97.6z"/>
	<path id="a" class="st0" d="M137.4,141.5c0,1.6-1.4,3-3,3H97.9c-1.7,0-3-1.4-3-3v-35.4c0-1.7,1.3-3,3-3h36.5c1.6,0,3,1.3,3,3V141.5z"/>
	<path id="z" class="st0" d="M160.8,185.4c0,1.7-1.4,3-3,3h-36.5c-1.7,0-3-1.3-3-3v-35.3c0-1.7,1.3-3,3-3h36.5c1.6,0,3,1.3,3,3V185.4z"/>
	<path id="x" class="st0" d="M205.8,185.4c0,1.7-1.4,3-3,3h-36.5c-1.7,0-3-1.3-3-3v-35.3c0-1.6,1.3-3,3-3h36.5c1.6,0,3,1.4,3,3V185.4z"/>
	<path id="c" class="st0" d="M250.8,185.4c0,1.7-1.4,3-3,3h-36.5c-1.7,0-3-1.3-3-3v-35.3c0-1.6,1.3-3,3-3h36.5c1.6,0,3,1.4,3,3V185.4z"/>
	<path id="v" class="st0" d="M295.8,185.4c0,1.7-1.4,3-3,3h-36.5c-1.7,0-3-1.3-3-3v-35.3c0-1.6,1.3-3,3-3h36.5c1.6,0,3,1.4,3,3V185.4z"/>
	<path id="b" class="st0" d="M340.8,185.4c0,1.7-1.4,3-3,3h-36.6c-1.6,0-3-1.3-3-3v-35.3c0-1.6,1.4-3,3-3h36.6c1.6,0,3,1.4,3,3V185.4z"/>
	<path id="n" class="st0" d="M385.8,185.4c0,1.7-1.4,3-3,3h-36.5c-1.6,0-3-1.3-3-3v-35.3c0-1.6,1.4-3,3-3h36.5c1.6,0,3,1.4,3,3V185.4z"/>
	<path id="m" class="st0" d="M430.8,185.4c0,1.7-1.4,3-3,3h-36.5c-1.6,0-3-1.3-3-3v-35.3c0-1.6,1.4-3,3-3h36.5c1.6,0,3,1.4,3,3V185.4z"/>
	<path id="comma" class="st0" d="M475.8,185.4c0,1.7-1.4,3-3,3h-36.5c-1.6,0-3-1.3-3-3v-35.3c0-1.6,1.4-3,3-3h36.5c1.6,0,3,1.4,3,3V185.4z"/>
	<path id="dot" class="st0" d="M520.8,185.4c0,1.7-1.3,3-3,3h-36.5c-1.6,0-3-1.3-3-3v-35.3c0-1.6,1.4-3,3-3h36.5c1.7,0,3,1.4,3,3V185.4z"/>
	<path id="slash" class="st0" d="M565.8,185.4c0,1.7-1.3,3-3,3h-36.5c-1.6,0-3-1.3-3-3v-35.3c0-1.6,1.4-3,3-3h36.5c1.7,0,3,1.4,3,3V185.4z"/>
	<path id="s" class="st0" d="M182.4,141.5c0,1.6-1.4,3-3,3h-36.5c-1.6,0-3-1.4-3-3v-35.4c0-1.7,1.4-3,3-3h36.5c1.6,0,3,1.3,3,3V141.5z"/>
	<path id="d" class="st0" d="M227.4,141.5c0,1.6-1.4,3-3,3h-36.5c-1.6,0-3-1.4-3-3v-35.4c0-1.7,1.4-3,3-3h36.5c1.6,0,3,1.3,3,3V141.5z"/>
	<path id="f" class="st0" d="M272.4,141.5c0,1.6-1.4,3-3,3h-36.5c-1.6,0-3-1.4-3-3v-35.4c0-1.7,1.4-3,3-3h36.5c1.6,0,3,1.3,3,3V141.5z"/>
	<path id="g" class="st0" d="M317.4,141.5c0,1.6-1.4,3-3,3h-36.5c-1.6,0-3-1.4-3-3v-35.4c0-1.7,1.4-3,3-3h36.5c1.6,0,3,1.3,3,3V141.5z"/>
	<path id="h" class="st0" d="M362.4,141.5c0,1.6-1.4,3-3,3h-36.5c-1.6,0-3-1.4-3-3v-35.4c0-1.7,1.4-3,3-3h36.5c1.6,0,3,1.3,3,3V141.5z"/>
	<path id="j" class="st0" d="M407.4,141.5c0,1.6-1.4,3-3,3h-36.5c-1.6,0-3-1.4-3-3v-35.4c0-1.7,1.4-3,3-3h36.5c1.6,0,3,1.3,3,3V141.5z"/>
	<path id="k" class="st0" d="M452.4,141.5c0,1.6-1.4,3-3,3h-36.5c-1.6,0-3-1.4-3-3v-35.4c0-1.7,1.4-3,3-3h36.5c1.6,0,3,1.3,3,3V141.5z"/>
	<path id="l" class="st0" d="M497.4,141.5c0,1.6-1.4,3-3,3h-36.5c-1.6,0-3-1.4-3-3v-35.4c0-1.7,1.4-3,3-3h36.5c1.6,0,3,1.3,3,3V141.5z"/>
	<path id="semicolon" class="st0" d="M542.4,141.5c0,1.6-1.4,3-3,3h-36.5c-1.6,0-3-1.4-3-3v-35.4c0-1.7,1.4-3,3-3h36.5c1.6,0,3,1.3,3,3V141.5z"/>
	<path id="quote" class="st0" d="M587.4,141.5c0,1.6-1.4,3-3,3h-36.5c-1.7,0-3-1.4-3-3v-35.4c0-1.7,1.3-3,3-3h36.5c1.6,0,3,1.3,3,3V141.5z"/>
	<path id="w" class="st0" d="M171.7,97.6c0,1.6-1.3,3-3,3h-36.5c-1.6,0-3-1.4-3-3V62.3c0-1.6,1.4-3,3-3h36.5c1.7,0,3,1.4,3,3V97.6z"/>
	<path id="e" class="st0" d="M216.7,97.6c0,1.6-1.3,3-3,3h-36.5c-1.6,0-3-1.4-3-3V62.3c0-1.7,1.4-3,3-3h36.5c1.7,0,3,1.3,3,3V97.6z"/>
	<path id="r" class="st0" d="M261.7,97.6c0,1.6-1.4,3-3,3h-36.5c-1.6,0-3-1.4-3-3V62.3c0-1.6,1.4-3,3-3h36.5c1.6,0,3,1.4,3,3V97.6z"/>
	<path id="t" class="st0" d="M306.7,97.6c0,1.6-1.4,3-3,3h-36.5c-1.6,0-3-1.4-3-3V62.3c0-1.6,1.4-3,3-3h36.5c1.6,0,3,1.4,3,3V97.6z"/>
	<path id="y" class="st0" d="M351.7,97.6c0,1.6-1.4,3-3,3h-36.5c-1.6,0-3-1.4-3-3V62.3c0-1.6,1.4-3,3-3h36.5c1.6,0,3,1.4,3,3V97.6z"/>
	<path id="u" class="st0" d="M396.7,97.6c0,1.6-1.4,3-3,3h-36.5c-1.6,0-3-1.4-3-3V62.3c0-1.6,1.4-3,3-3h36.5c1.6,0,3,1.4,3,3V97.6z"/>
	<path id="i" class="st0" d="M441.7,97.6c0,1.6-1.4,3-3,3h-36.5c-1.6,0-3-1.4-3-3V62.3c0-1.6,1.4-3,3-3h36.5c1.6,0,3,1.4,3,3V97.6z"/>
	<path id="o" class="st0" d="M486.7,97.6c0,1.6-1.4,3-3,3h-36.5c-1.6,0-3-1.4-3-3V62.3c0-1.6,1.4-3,3-3h36.5c1.6,0,3,1.4,3,3V97.6z"/>
	<path id="p" class="st0" d="M531.7,97.6c0,1.6-1.3,3-3,3h-36.5c-1.6,0-3-1.4-3-3V62.3c0-1.6,1.4-3,3-3h36.5c1.7,0,3,1.4,3,3V97.6z"/>
	<path id="open-bracket" class="st0" d="M576.7,97.6c0,1.6-1.3,3-3,3h-36.5c-1.6,0-3-1.4-3-3V62.3c0-1.6,1.4-3,3-3h36.5c1.7,0,3,1.4,3,3V97.6z"/>
	<path id="close-bracket" class="st0" d="M621.7,97.6c0,1.6-1.3,3-3,3h-36.5c-1.6,0-3-1.4-3-3V62.3c0-1.6,1.4-3,3-3h36.5c1.7,0,3,1.4,3,3V97.6z"/>
	<path id="backslash" class="st0" d="M668.8,97.6c0,1.6-1.3,3-3,3h-38.6c-1.6,0-3-1.4-3-3V62.4c0-1.6,1.4-3,3-3h38.6c1.7,0,3,1.4,3,3V97.6z"/>
	<path id="key-2" class="st0" d="M148.4,53.7c0,1.7-1.4,3-3,3h-36.5c-1.6,0-3-1.3-3-3V18.3c0-1.6,1.4-3,3-3h36.5c1.6,0,3,1.4,3,3V53.7z"/>
	<path id="key-3" class="st0" d="M193.4,53.7c0,1.7-1.4,3-3,3h-36.5c-1.7,0-3-1.3-3-3V18.3c0-1.6,1.3-3,3-3h36.5c1.6,0,3,1.4,3,3V53.7z"/>
	<path id="key-4" class="st0" d="M238.4,53.7c0,1.7-1.4,3-3,3H199c-1.7,0-3-1.3-3-3V18.3c0-1.7,1.3-3,3-3h36.5c1.6,0,3,1.3,3,3V53.7z"/>
	<path id="key-5" class="st0" d="M283.4,53.7c0,1.7-1.3,3-3,3h-36.5c-1.7,0-3-1.3-3-3V18.3c0-1.7,1.3-3,3-3h36.5c1.7,0,3,1.3,3,3V53.7z"/>
	<path id="key-6" class="st0" d="M328.4,53.7c0,1.7-1.3,3-3,3h-36.5c-1.6,0-3-1.3-3-3V18.3c0-1.7,1.4-3,3-3h36.5c1.7,0,3,1.3,3,3V53.7z"/>
	<path id="key-7" class="st0" d="M373.4,53.7c0,1.7-1.3,3-3,3h-36.5c-1.6,0-3-1.3-3-3V18.3c0-1.6,1.4-3,3-3h36.5c1.7,0,3,1.4,3,3V53.7z"/>
	<path id="key-8" class="st0" d="M418.4,53.7c0,1.7-1.3,3-3,3h-36.5c-1.6,0-3-1.3-3-3V18.3c0-1.6,1.4-3,3-3h36.5c1.7,0,3,1.4,3,3V53.7z"/>
	<path id="key-9" class="st0" d="M463.4,53.7c0,1.7-1.3,3-3,3h-36.5c-1.6,0-3-1.3-3-3V18.3c0-1.6,1.4-3,3-3h36.5c1.7,0,3,1.4,3,3V53.7z"/>
	<path id="key-0" class="st0" d="M508.4,53.7c0,1.7-1.3,3-3,3h-36.5c-1.6,0-3-1.3-3-3V18.3c0-1.6,1.4-3,3-3h36.5c1.7,0,3,1.4,3,3V53.7z"/>
	<path id="minus" class="st0" d="M553.4,53.7c0,1.7-1.4,3-3,3h-36.5c-1.7,0-3-1.3-3-3V18.3c0-1.7,1.4-3,3-3h36.5c1.6,0,3,1.3,3,3V53.7z"/>
	<path id="equal" class="st0" d="M598.4,53.7c0,1.7-1.4,3-3,3h-36.5c-1.7,0-3-1.3-3-3V18.3c0-1.6,1.3-3,3-3h36.5c1.6,0,3,1.4,3,3V53.7z"/>
	<path id="backspace" class="st0" d="M668.8,53.7c0,1.7-1.3,3-3,3h-61.9c-1.7,0-3-1.3-3-3V18.3c0-1.6,1.3-3,3-3h61.9c1.7,0,3,1.4,3,3V53.7z"/>
	<path id="tab" class="st0" d="M81.7,97.6c0,1.6-1.3,3-3,3H18.9c-1.6,0-3-1.4-3-3V62.3c0-1.6,1.3-3,3-3h59.8c1.7,0,3,1.4,3,3V97.6z"/>
	<path id="capslock" class="st0" d="M92.4,141.5c0,1.6-1.3,3-3,3H18.9c-1.6,0-3-1.4-3-3v-35.4c0-1.7,1.3-3,3-3h70.4c1.7,0,3,1.3,3,3V141.5z"/>
	<path id="enter" class="st0" d="M668.8,141.5c0,1.6-1.3,3-3,3h-72.9c-1.7,0-3-1.4-3-3v-35.4c0-1.7,1.3-3,3-3h72.9c1.7,0,3,1.3,3,3V141.5z"/>
	<path id="shift-left" class="st0" d="M115.8,185.4c0,1.7-1.3,3-3,3H18.9c-1.6,0-3-1.3-3-3v-35.3c0-1.6,1.3-3,3-3h93.8c1.7,0,3,1.4,3,3V185.4z"/>
	<path id="control" class="st0" d="M105,236c0,1.6-1.3,3-3,3H18.9c-1.6,0-3-1.4-3-3v-42c0-1.7,1.3-3,3-3H102c1.7,0,3,1.3,3,3V236z"/>
	<path id="option-left" class="st0" d="M182.4,236c0,1.7-1.4,3-3,3h-68.8c-1.7,0-3-1.3-3-3v-42c0-1.7,1.3-3,3-3h68.8c1.6,0,3,1.3,3,3V236z"/>
	<path id="option-right" class="st0" d="M531.8,191c1.7,0,3,1.4,3,3v42c0,1.7-1.3,3-3,3h-62.9c-1.6,0-3-1.3-3-3v-42c0-1.6,1.4-3,3-3H531.8z"/>
	<path class="st0" d="M668.8,236.1c0,1.7-1.3,3-3,3H540.3c-1.6,0-3-1.3-3-3v-42c0-1.6,1.4-3,3-3h125.5c1.7,0,3,1.4,3,3V236.1z"/>
	<path id="space" class="st0" d="M460.4,191c1.6,0,3,1.4,3,3v42c0,1.7-1.4,3-3,3H187.5c-1.6,0-3-1.3-3-3v-42c0-1.6,1.4-3,3-3H460.4z"/>
	<path id="shift-right" class="st0" d="M668.8,185.4c0,1.7-1.3,3-3,3h-94.5c-1.6,0-3-1.3-3-3v-35.3c0-1.6,1.4-3,3-3h94.5c1.7,0,3,1.4,3,3V185.4z"/>
</g>
<g id="letters">
	<text transform="matrix(1 0 0 1 33.4903 33.804)" class="st1 st2 st3">~</text>
	<text transform="matrix(1 0 0 1 35.8009 52.6643)" class="st1 st2 st3">`</text>
	<text transform="matrix(1 0 0 1 78.626 50.4071)" class="st1 st2 st3">1</text>
	<text transform="matrix(1 0 0 1 123.299 51.1765)" class="st1 st2 st3">2</text>
	<text transform="matrix(1 0 0 1 169.6841 51.404)" class="st1 st2 st3">3</text>
	<text transform="matrix(1 0 0 1 213.0758 51.404)" class="st1 st2 st3">4</text>
	<text transform="matrix(1 0 0 1 258.0724 51.404)" class="st1 st2 st3">5</text>
	<text transform="matrix(1 0 0 1 303.2822 51.0891)" class="st1 st2 st3">6</text>
	<text transform="matrix(1 0 0 1 349.5064 51.0891)" class="st1 st2 st3">7</text>
	<text transform="matrix(1 0 0 1 393.281 51.2157)" class="st1 st2 st3">8</text>
	<text transform="matrix(1 0 0 1 438.5742 51.2157)" class="st1 st2 st3">9</text>
	<text transform="matrix(1 0 0 1 483.4907 51.2157)" class="st1 st2 st3">0</text>
	<text transform="matrix(1 0 0 1 530.4011 50.4071)" class="st1 st2 st3">-</text>
	<text transform="matrix(1 0 0 1 573.5195 51.2157)" class="st1 st2 st3">=</text>
	<text transform="matrix(1 0 0 1 80.5513 31.7605)" class="st1 st2 st3">!</text>
	<text transform="matrix(1 0 0 1 119.8565 30.45)" class="st1 st2 st3">@</text>
	<text transform="matrix(1 0 0 1 169.6841 31.76)" class="st1 st2 st3">#</text>
	<text transform="matrix(1 0 0 1 213.0758 31.2171)" class="st1 st2 st3">$</text>
	<text transform="matrix(1 0 0 1 255.5748 30.8318)" class="st1 st2 st3">%</text>
	<text transform="matrix(1 0 0 1 303.9556 32.4427)" class="st1 st2 st3">^</text>
	<text transform="matrix(1 0 0 1 348.2554 31.76)" class="st1 st2 st3">&amp;</text>
	<text transform="matrix(1 0 0 1 394.5334 32.8236)" class="st1 st2 st3">*</text>
	<text transform="matrix(1 0 0 1 440.3076 30.6435)" class="st1 st2 st3">(</text>
	<text transform="matrix(1 0 0 1 485.1645 30.6435)" class="st1 st2 st3">)</text>
	<text transform="matrix(1 0 0 1 528.7588 25.5423)" class="st1 st2 st3">_</text>
	<text transform="matrix(1 0 0 1 573.5195 32.4422)" class="st1 st2 st3">+</text>
	<text transform="matrix(1 0 0 1 108.1346 133.3303)" class="st1 st2 st4" x="-9" y="-9">A</text>
	<text transform="matrix(1 0 0 1 312.0098 176.7458)" class="st1 st2 st4" x="-9" y="-9">B</text>
	<text transform="matrix(1 0 0 1 198.5241 133.3303)" class="st1 st2 st4" x="-9" y="-9">D</text>
	<text transform="matrix(1 0 0 1 220.5416 176.7458)" class="st1 st2 st4" x="-9" y="-9">C</text>
	<text transform="matrix(1 0 0 1 188.5943 88.4744)" class="st1 st2 st4" x="-9" y="-9">E</text>
	<text transform="matrix(1 0 0 1 245.1121 133.3303)" class="st1 st2 st4" x="-9" y="-9">F</text>
	<text transform="matrix(1 0 0 1 287.4753 133.3303)" class="st1 st2 st4" x="-9" y="-9">G</text>
	<text transform="matrix(1 0 0 1 333.5886 133.3303)" class="st1 st2 st4" x="-9" y="-9">H</text>
	<text transform="matrix(1 0 0 1 416.5557 88.4743)" class="st1 st2 st4" x="-9" y="-9">I</text>
	<text transform="matrix(1 0 0 1 380.2692 133.3303)" class="st1 st2 st4" x="-9" y="-9">J</text>
	<text transform="matrix(1 0 0 1 425.0182 133.3303)" class="st1 st2 st4" x="-9" y="-9">K</text>
	<text transform="matrix(1 0 0 1 471.8706 133.3303)" class="st1 st2 st4" x="-9" y="-9">L</text>
	<text transform="matrix(1 0 0 1 399.6816 176.7458)" class="st1 st2 st4" x="-9" y="-9">M</text>
	<text transform="matrix(1 0 0 1 356.4863 176.7458)" class="st1 st2 st4" x="-9" y="-9">N</text>
	<text transform="matrix(1 0 0 1 456.9639 88.4743)" class="st1 st2 st4" x="-9" y="-9">O</text>
	<text transform="matrix(1 0 0 1 503.9335 88.4743)" class="st1 st2 st4" x="-9" y="-9">P</text>
	<text transform="matrix(1 0 0 1 95.9088 88.4743)" class="st1 st2 st4" x="-9" y="-9">Q</text>
	<text transform="matrix(1 0 0 1 231.9933 88.4743)" class="st1 st2 st4" x="-9" y="-9">R</text>
	<text transform="matrix(1 0 0 1 153.0135 133.3303)" class="st1 st2 st4" x="-9" y="-9">S</text>
	<text transform="matrix(1 0 0 1 278.608 88.4744)" class="st1 st2 st4" x="-9" y="-9">T</text>
	<text transform="matrix(1 0 0 1 368.1386 88.4743)" class="st1 st2 st4" x="-9" y="-9">U</text>
	<text transform="matrix(1 0 0 1 267.3973 176.7458)" class="st1 st2 st4" x="-9" y="-9">V</text>
	<text transform="matrix(1 0 0 1 140.3644 88.4744)" class="st1 st2 st4" x="-9" y="-9">W</text>
	<text transform="matrix(1 0 0 1 177.2339 176.7458)" class="st1 st2 st4" x="-9" y="-9">X</text>
	<text transform="matrix(1 0 0 1 323.5138 88.4744)" class="st1 st2 st4" x="-9" y="-9">Y</text>
	<text transform="matrix(1 0 0 1 132.7896 176.7458)" class="st1 st2 st4" x="-9" y="-9">Z</text>
	<text transform="matrix(1 0 0 1 519.074 136.7127)" class="st1 st2 st3">;</text>
	<text transform="matrix(1 0 0 1 519.074 119.3763)" class="st1 st2 st3">:</text>
	<text transform="matrix(1 0 0 1 451.3285 180.0409)" class="st1 st2 st5">,</text>
	<text transform="matrix(1 0 0 1 450.2827 164.3396)" class="st1 st2 st3">&lt;</text>
	<text transform="matrix(1 0 0 1 495.9731 181.0409)" class="st1 st2 st5">.</text>
	<text transform="matrix(1 0 0 1 494.9274 164.3396)" class="st1 st2 st3">&gt;</text>
	<text transform="matrix(1 0 0 1 543.4077 181.0408)" class="st1 st2 st3">/</text>
	<text transform="matrix(1 0 0 1 541.3276 163.2498)" class="st1 st2 st3">?</text>
	<text transform="matrix(1 0 0 1 565.621 138.7127)" class="st1 st2 st3">&apos;</text>
	<text transform="matrix(1 0 0 1 565.621 120.3763)" class="st1 st2 st3">&quot;</text>
	<text transform="matrix(1 0 0 1 553.3923 94.426)" class="st1 st2 st3">[</text>
	<text transform="matrix(1 0 0 1 552.9709 74.8769)" class="st1 st2 st3">{</text>
	<text transform="matrix(1 0 0 1 598.7657 94.426)" class="st1 st2 st3">]</text>
	<text transform="matrix(1 0 0 1 598.3443 74.7849)" class="st1 st2 st3">}</text>
	<text transform="matrix(1 0 0 1 644.3574 96.8807)" class="st1 st2 st3">\</text>
	<text transform="matrix(1 0 0 1 644.4941 74.8769)" class="st1 st2 st3">|</text>
	<text id="text-tab" transform="matrix(1 0 0 1 23.3467 93.2342)" class="st1 st2 st6">tab</text>
	<text id="caps-lock" transform="matrix(1 0 0 1 23.3467 137.7127)" class="st1 st2 st6">caps lock</text>
	<text id="text-shift-left" transform="matrix(1 0 0 1 23.3467 181.0408)" class="st1 st2 st6">shift</text>
	<text id="text-shift-right" transform="matrix(1 0 0 1 641.826 180.0408)" class="st1 st2 st6">shift</text>
	<text id="text-backspace" transform="matrix(1 0 0 1 606.4653 51.1765)" class="st1 st2 st6">backspace</text>
	<text id="text-enter" transform="matrix(1 0 0 1 636.3144 137.7128)" class="st1 st2 st6">enter</text>
	<text transform="matrix(1 0 0 1 23.3467 232.465)" class="st1 st2 st6">control</text>
	<text id="text-option-left" transform="matrix(1 0 0 1 129.2338 231.4646)" class="st1 st2 st6">option</text>
	<text id="text-space" transform="matrix(1 0 0 1 199.7899 232.4646)" class="st1 st2 st6">space</text>
	<text id="text-option-right" transform="matrix(1 0 0 1 483.8864 231.4646)" class="st1 st2 st6">option</text>
</g>

<text class="st1 st2 st6 st9" x="110.70" y="78.26563">q</text>
<text class="st1 st2 st6 st9" x="156.16" y="78.26563">w</text>
<text class="st1 st2 st6 st9" x="201.62" y="78.26563">e</text>
<text class="st1 st2 st6 st9" x="248.07" y="78.26563">r</text>
<text class="st1 st2 st6 st9" x="292.54" y="78.26563">t</text>
<text class="st1 st2 st6 st9" x="337.00" y="78.26563">y</text>
<text class="st1 st2 st6 st9" x="381.46" y="78.26563">sh</text>
<text class="st1 st2 st6 st9" x="425.92" y="78.26563">ch</text>
<text class="st1 st2 st6 st9" x="470.38" y="78.26563">o</text>
<text class="st1 st2 st6 st9" x="514.84" y="78.26563">p</text>


<text class="st1 st2 st7 st10" x="100.70" y="93.26563">iu</text>
<text class="st1 st2 st7 st10" x="145.70" y="93.26563">ia ua</text>
<text class="st1 st2 st7 st10" x="195.70" y="93.26563">e</text>
<text class="st1 st2 st7 st10" x="230.70" y="93.26563">uan</text>
<text class="st1 st2 st7 st10" x="275.70" y="93.26563">ue</text>
<text class="st1 st2 st7 st10" x="320.70" y="93.26563">uai ü</text>
<text class="st1 st2 st7 st10" x="375.70" y="93.26563">u</text>
<text class="st1 st2 st7 st10" x="420.70" y="93.26563">i</text>
<text class="st1 st2 st7 st10" x="455.70" y="93.26563">uo o</text>
<text class="st1 st2 st7 st10" x="505.70" y="93.26563">un</text>


<text class="st1 st2 st6 st9" x="120.71" y="122.26563">a</text>
<text class="st1 st2 st6 st9" x="166.16" y="122.26563">s</text>
<text class="st1 st2 st6 st9" x="211.62" y="122.26563">d</text>
<text class="st1 st2 st6 st9" x="258.07" y="122.26563">f</text>
<text class="st1 st2 st6 st9" x="302.54" y="122.26563">g</text>
<text class="st1 st2 st6 st9" x="347.01" y="122.26563">h</text>
<text class="st1 st2 st6 st9" x="391.46" y="122.26563">j</text>
<text class="st1 st2 st6 st9" x="435.92" y="122.26563">k</text>
<text class="st1 st2 st6 st9" x="480.38" y="122.26563">l</text>

<text class="st1 st2 st7 st10" x="115.71" y="137">a</text>
<text class="st1 st2 st7 st10" x="142.16" y="137">ong iong</text>
<text class="st1 st2 st7 st10" x="185.62" y="137">iang uang</text>
<text class="st1 st2 st7 st10" x="245.07" y="137">en</text>
<text class="st1 st2 st7 st10" x="287.54" y="137">eng</text>
<text class="st1 st2 st7 st10" x="335.01" y="137">ang</text>
<text class="st1 st2 st7 st10" x="382.46" y="137">an</text>
<text class="st1 st2 st7 st10" x="418.92" y="137">ao</text>
<text class="st1 st2 st8 st10" x="470.38" y="137">ai</text>
<text class="st1 st2 st8 st10" x="507.00" y="137">ing</text>

<text class="st1 st2 st6 st9" x="145.7" y="166.26563">z</text>
<text class="st1 st2 st6 st9" x="191.16" y="166.26563">x</text>
<text class="st1 st2 st6 st9" x="236.62" y="166.26563">c</text>
<text class="st1 st2 st6 st9" x="280.07" y="166.26563">zh</text>
<text class="st1 st2 st6 st9" x="327.54" y="166.26563">b</text>
<text class="st1 st2 st6 st9" x="372.0" y="166.26563">n</text>
<text class="st1 st2 st6 st9" x="416.46" y="166.26563">m</text>

<text class="st1 st2 st7 st10" x="135.70" y="181.26563">ei</text>
<text class="st1 st2 st7 st10" x="180.16" y="181.26563">ie</text>
<text class="st1 st2 st7 st10" x="225.62" y="181.26563">iao</text>
<text class="st1 st2 st7 st10" x="268.07" y="181.26563">ui üe</text>
<text class="st1 st2 st7 st10" x="315.54" y="181.26563">ou</text>
<text class="st1 st2 st7 st10" x="360.00" y="181.26563">in</text>
<text class="st1 st2 st7 st10" x="405.46" y="181.26563">ian</text>
</svg>